<mxfile host="65bd71144e">
    <diagram id="4bFwDpFHrdz87rNSP3O0" name="Page-1">
        <mxGraphModel dx="1429" dy="914" grid="1" gridSize="10" guides="1" tooltips="1" connect="1" arrows="1" fold="1" page="1" pageScale="1" pageWidth="827" pageHeight="1169" math="0" shadow="0">
            <root>
                <mxCell id="0"/>
                <mxCell id="1" parent="0"/>
                <mxCell id="2" value="" style="rounded=0;whiteSpace=wrap;html=1;fillColor=#f5f5f5;fontColor=#333333;strokeColor=#666666;" vertex="1" parent="1">
                    <mxGeometry x="80" y="80" width="680" height="600" as="geometry"/>
                </mxCell>
                <mxCell id="3" value="" style="rounded=0;whiteSpace=wrap;html=1;fillColor=#fa6800;fontColor=#000000;strokeColor=#C73500;shadow=1;" vertex="1" parent="1">
                    <mxGeometry x="80" y="80" width="680" height="60" as="geometry"/>
                </mxCell>
                <mxCell id="4" value="Sample Username" style="text;html=1;strokeColor=none;fillColor=none;align=center;verticalAlign=middle;whiteSpace=wrap;rounded=0;shadow=1;fontSize=18;" vertex="1" parent="1">
                    <mxGeometry x="490" y="95" width="160" height="30" as="geometry"/>
                </mxCell>
                <mxCell id="5" value="" style="html=1;verticalLabelPosition=bottom;align=center;labelBackgroundColor=#ffffff;verticalAlign=top;strokeWidth=2;strokeColor=#FFFFFF;shadow=0;dashed=0;shape=mxgraph.ios7.icons.user;fontSize=18;fillColor=#fa6800;fontColor=#000000;" vertex="1" parent="1">
                    <mxGeometry x="664" y="90" width="40" height="40" as="geometry"/>
                </mxCell>
                <mxCell id="6" value="" style="ellipse;whiteSpace=wrap;html=1;aspect=fixed;shadow=0;strokeColor=#FFFFFF;fontSize=18;fillColor=#FFFFFF;" vertex="1" parent="1">
                    <mxGeometry x="730" y="97" width="7" height="7" as="geometry"/>
                </mxCell>
                <mxCell id="8" value="" style="ellipse;whiteSpace=wrap;html=1;aspect=fixed;shadow=0;strokeColor=#FFFFFF;fontSize=18;fillColor=#FFFFFF;" vertex="1" parent="1">
                    <mxGeometry x="730" y="109" width="7" height="7" as="geometry"/>
                </mxCell>
                <mxCell id="9" value="" style="ellipse;whiteSpace=wrap;html=1;aspect=fixed;shadow=0;strokeColor=#FFFFFF;fontSize=18;fillColor=#FFFFFF;" vertex="1" parent="1">
                    <mxGeometry x="730" y="120" width="7" height="7" as="geometry"/>
                </mxCell>
                <mxCell id="10" value="&lt;font style=&quot;font-size: 16px;&quot; color=&quot;#ff8000&quot;&gt;our logo&lt;/font&gt;" style="ellipse;whiteSpace=wrap;html=1;aspect=fixed;shadow=0;strokeColor=#FFFFFF;fontSize=18;fillColor=#FFFFFF;" vertex="1" parent="1">
                    <mxGeometry x="100" y="90" width="40" height="40" as="geometry"/>
                </mxCell>
                <mxCell id="11" value="" style="rounded=1;whiteSpace=wrap;html=1;shadow=0;strokeColor=#FF8000;fontSize=16;fontColor=#FF8000;fillColor=#FFFFFF;strokeWidth=2;" vertex="1" parent="1">
                    <mxGeometry x="125" y="290" width="590" height="120" as="geometry"/>
                </mxCell>
                <mxCell id="12" value="&lt;font color=&quot;#ffffff&quot;&gt;Generate&lt;/font&gt;" style="rounded=1;whiteSpace=wrap;html=1;shadow=0;strokeColor=#FF8000;fontSize=16;fontColor=#FF8000;fillColor=#FF8000;strokeWidth=2;" vertex="1" parent="1">
                    <mxGeometry x="344" y="500" width="139" height="50" as="geometry"/>
                </mxCell>
                <mxCell id="13" value="&lt;font color=&quot;#ff8000&quot; style=&quot;font-size: 24px;&quot;&gt;Transcription&lt;/font&gt;" style="text;html=1;strokeColor=none;fillColor=none;align=center;verticalAlign=middle;whiteSpace=wrap;rounded=0;shadow=0;strokeWidth=2;fontSize=16;fontColor=#FFFFFF;" vertex="1" parent="1">
                    <mxGeometry x="160" y="240" width="60" height="30" as="geometry"/>
                </mxCell>
                <mxCell id="14" value="&lt;font style=&quot;font-size: 16px;&quot;&gt;Lorem ipsum dolor sit amet. Lorem ipsum dolor sit amet. Lorem ipsum dolor sit amet. Lorem ipsum dolor sit amet. Lorem ipsum dolor sit amet. Lorem ipsum dolor sit amet. Lorem ipsum dolor sit amet.&amp;nbsp;&lt;br&gt;&amp;nbsp;&lt;/font&gt;" style="text;html=1;strokeColor=none;fillColor=none;align=left;verticalAlign=middle;whiteSpace=wrap;rounded=0;shadow=0;strokeWidth=2;fontSize=24;fontColor=#FF8000;" vertex="1" parent="1">
                    <mxGeometry x="140" y="315" width="560" height="85" as="geometry"/>
                </mxCell>
                <mxCell id="17" value="" style="ellipse;whiteSpace=wrap;html=1;aspect=fixed;shadow=0;strokeColor=#FF8000;strokeWidth=2;fontSize=16;fontColor=#FF8000;fillColor=#FF8000;" vertex="1" parent="1">
                    <mxGeometry x="125" y="170" width="40" height="40" as="geometry"/>
                </mxCell>
                <mxCell id="18" value="" style="triangle;whiteSpace=wrap;html=1;shadow=0;strokeColor=none;strokeWidth=2;fontSize=16;fontColor=#FF8000;fillColor=#FFFFFF;rounded=1;rotation=-180;" vertex="1" parent="1">
                    <mxGeometry x="131" y="178.34" width="20" height="23.33" as="geometry"/>
                </mxCell>
                <mxCell id="21" value="&lt;font color=&quot;#ff8000&quot; style=&quot;font-size: 16px;&quot;&gt;back to Select Input&lt;/font&gt;" style="text;html=1;strokeColor=none;fillColor=none;align=center;verticalAlign=middle;whiteSpace=wrap;rounded=0;shadow=0;strokeWidth=2;fontSize=16;fontColor=#FFFFFF;" vertex="1" parent="1">
                    <mxGeometry x="180" y="175" width="150" height="30" as="geometry"/>
                </mxCell>
                <mxCell id="22" value="&lt;font style=&quot;font-size: 14px;&quot; color=&quot;#ff8000&quot;&gt;Documentation&lt;/font&gt;" style="rounded=1;fillColor=#FFFFFF;strokeColor=#FF8000;html=1;fontColor=#596780;align=left;fontSize=12;spacingLeft=10;sketch=0;shadow=0;strokeWidth=2;" vertex="1" parent="1">
                    <mxGeometry x="250" y="438.5" width="140" height="33" as="geometry"/>
                </mxCell>
                <mxCell id="23" value="" style="shape=triangle;direction=south;fillColor=#FF8000;strokeColor=none;html=1;sketch=0;rounded=1;shadow=0;strokeWidth=2;fontSize=16;fontColor=#FF8000;" vertex="1" parent="22">
                    <mxGeometry x="1" y="0.5" width="12" height="6" relative="1" as="geometry">
                        <mxPoint x="-20" y="-3" as="offset"/>
                    </mxGeometry>
                </mxCell>
                <mxCell id="24" value="&lt;font color=&quot;#ff8000&quot; style=&quot;font-size: 16px;&quot;&gt;Prompt type:&lt;/font&gt;" style="text;html=1;strokeColor=none;fillColor=none;align=center;verticalAlign=middle;whiteSpace=wrap;rounded=0;shadow=0;strokeWidth=2;fontSize=16;fontColor=#FFFFFF;" vertex="1" parent="1">
                    <mxGeometry x="125" y="440" width="100" height="30" as="geometry"/>
                </mxCell>
            </root>
        </mxGraphModel>
    </diagram>
</mxfile>